<svg width="257" height="257" viewBox="0 0 257 257" fill="none" xmlns="http://www.w3.org/2000/svg">
<path d="M31.7637 101.395C30.4093 101.407 29.0759 101.06 27.8987 100.391C27.0352 99.9053 26.2772 99.2526 25.6691 98.4708C25.0609 97.689 24.6148 96.7938 24.3568 95.8375C24.0988 94.8812 24.0341 93.883 24.1665 92.9014C24.2989 91.9198 24.6257 90.9744 25.1279 90.1207C34.8055 73.9678 64.2501 36.2661 128.5 36.2661C156.343 36.2661 180.763 43.5796 201.047 57.9957C217.742 69.8267 227.099 83.2188 231.556 89.6689C232.121 90.4819 232.518 91.3998 232.724 92.3686C232.929 93.3373 232.938 94.3374 232.751 95.3098C232.564 96.2822 232.184 97.2073 231.634 98.0308C231.084 98.8542 230.375 99.5593 229.548 100.105C227.859 101.221 225.801 101.636 223.811 101.261C221.82 100.887 220.054 99.7515 218.887 98.0967C210.82 86.4966 186.225 51.1992 128.5 51.1992C72.1559 51.1992 46.6817 83.6806 38.3845 97.6098C37.7178 98.773 36.7526 99.7371 35.5887 100.402C34.4248 101.068 33.1043 101.41 31.7637 101.395Z" fill="url(#paint0_linear_72_102)"/>
<path d="M160.871 248.969C160.23 248.976 159.591 248.904 158.968 248.753C112.362 237.208 94.9594 190.617 94.2517 188.679L94.1412 188.252C93.7598 186.907 84.4084 154.958 98.7642 136.245C105.345 127.712 115.354 123.335 128.57 123.335C140.858 123.335 149.723 127.155 155.816 135.06C160.836 141.516 162.844 149.477 164.786 157.146C168.867 173.119 171.813 181.506 188.774 182.37C196.223 182.746 201.118 178.389 203.893 174.68C211.398 164.565 212.703 148.076 207.046 133.519C199.777 114.731 173.982 79.3086 128.5 79.3086C109.084 79.3086 91.245 85.5478 76.9393 97.2735C65.0982 106.986 55.7167 120.7 51.1991 134.794C42.8216 161.037 53.8093 202.287 53.9147 202.664C54.1713 203.624 54.233 204.625 54.0963 205.61C53.9595 206.594 53.6271 207.541 53.1186 208.395C52.6101 209.248 51.9357 209.992 51.1354 210.581C50.335 211.17 49.4248 211.593 48.4585 211.824C46.5062 212.343 44.4282 212.077 42.6699 211.083C40.9116 210.088 39.6128 208.444 39.0519 206.503C38.5499 204.621 26.8143 160.625 36.4919 130.297C47.0329 97.4341 79.5645 64.3052 128.515 64.3052C151.138 64.3052 172.511 71.9951 190.351 86.5166C204.164 97.8105 215.448 112.98 221.351 128.144C228.855 147.504 226.843 169.233 216.236 183.429C209.169 192.896 199.105 197.845 187.956 197.308C158.913 195.852 153.693 175.578 149.888 160.791C145.973 145.622 143.468 138.308 128.515 138.308C120.303 138.308 114.536 140.567 110.947 145.245C106.053 151.645 105.671 161.649 106.213 168.907C106.569 173.964 107.427 178.973 108.773 183.86C109.968 186.872 125.523 225.021 162.778 234.251C163.741 234.48 164.649 234.897 165.45 235.479C166.25 236.061 166.927 236.796 167.44 237.642C167.954 238.488 168.294 239.427 168.442 240.406C168.59 241.384 168.541 242.382 168.3 243.342C167.845 244.962 166.873 246.389 165.532 247.405C164.19 248.421 162.554 248.97 160.871 248.969Z" fill="url(#paint1_linear_72_102)"/>
<path d="M101.048 245.525C100.003 245.527 98.969 245.319 98.0066 244.913C97.0441 244.507 96.1734 243.911 95.4462 243.161C76.7936 223.585 66.2426 201.695 62.2721 174.323V174.178C60.0434 156.057 63.3061 130.402 79.2933 112.764C91.0943 99.7481 107.684 93.1323 128.515 93.1323C153.151 93.1323 172.511 104.587 184.583 126.206C193.342 141.912 195.079 157.563 195.124 158.206C195.216 159.196 195.111 160.195 194.817 161.145C194.522 162.096 194.042 162.978 193.406 163.743C192.77 164.508 191.988 165.139 191.108 165.602C190.227 166.064 189.263 166.348 188.272 166.438C186.273 166.655 184.269 166.077 182.692 164.828C181.115 163.58 180.092 161.762 179.845 159.767C178.522 150.376 175.484 141.308 170.88 133.018C161.523 116.508 147.288 108.116 128.46 108.116C112.196 108.116 99.4718 113.01 90.7178 122.672C78.0987 136.601 75.6592 158.06 77.3909 172.255C80.8695 196.459 90.1707 215.714 106.595 232.921C107.28 233.634 107.815 234.478 108.168 235.402C108.521 236.326 108.685 237.312 108.649 238.3C108.613 239.289 108.379 240.26 107.961 241.156C107.542 242.053 106.948 242.856 106.213 243.517C104.798 244.8 102.958 245.515 101.048 245.525Z" fill="url(#paint2_linear_72_102)"/>
<path d="M186.978 223.961C170.664 223.961 156.795 219.444 145.697 210.464C123.4 192.499 120.9 163.24 120.79 162.005C120.633 159.978 121.287 157.972 122.61 156.428C123.932 154.884 125.813 153.928 127.84 153.771C129.867 153.614 131.873 154.268 133.417 155.59C134.962 156.912 135.917 158.794 136.074 160.821C136.13 161.252 138.358 185.185 155.545 198.969C165.715 207.091 179.308 210.313 196.058 208.431C198.06 208.188 200.076 208.748 201.667 209.987C203.258 211.227 204.293 213.046 204.546 215.047C204.656 216.035 204.567 217.035 204.286 217.989C204.005 218.943 203.537 219.831 202.909 220.602C202.281 221.373 201.506 222.011 200.629 222.479C199.751 222.948 198.79 223.236 197.8 223.329C194.208 223.748 190.594 223.959 186.978 223.961Z" fill="url(#paint3_linear_72_102)"/>
<path d="M199.868 24.4903C193.503 20.3492 170.935 8.03125 128.5 8.03125C83.9567 8.03125 61.3337 21.6392 56.3292 25.0977C55.9987 25.3005 55.6893 25.5359 55.4056 25.8004C55.3757 25.8293 55.3367 25.8471 55.2952 25.8506C54.496 26.5483 53.8548 27.4084 53.4142 28.3735C52.9737 29.3386 52.7439 30.3865 52.7402 31.4474C52.754 32.4418 52.9638 33.4238 53.3577 34.337C53.7516 35.2502 54.3219 36.0768 55.0358 36.7692C55.7497 37.4617 56.5932 38.0064 57.518 38.3723C58.4428 38.7382 59.4307 38.918 60.4251 38.9014C62.019 38.9003 63.5744 38.4116 64.8825 37.5009C65.0983 37.3403 84.5691 23.0346 128.515 23.0346C172.461 23.0346 192.037 37.2901 192.248 37.3955C193.584 38.3865 195.207 38.9152 196.871 38.9014C197.866 38.9166 198.855 38.7352 199.78 38.3675C200.705 37.9997 201.548 37.453 202.261 36.7585C202.974 36.0641 203.543 35.2357 203.935 34.3208C204.327 33.4059 204.535 32.4226 204.546 31.4273C204.546 29.9364 204.101 28.4794 203.268 27.2434C202.434 26.0073 201.25 25.0486 199.868 24.4903Z" fill="url(#paint4_linear_72_102)"/>
<defs>
<linearGradient id="paint0_linear_72_102" x1="128.492" y1="36.2661" x2="128.492" y2="101.396" gradientUnits="userSpaceOnUse">
<stop stop-color="#0076B8"/>
<stop offset="1" stop-color="#B400C4" stop-opacity="0.43"/>
</linearGradient>
<linearGradient id="paint1_linear_72_102" x1="129.263" y1="64.3052" x2="129.263" y2="248.969" gradientUnits="userSpaceOnUse">
<stop stop-color="#0076B8"/>
<stop offset="1" stop-color="#B400C4" stop-opacity="0.43"/>
</linearGradient>
<linearGradient id="paint2_linear_72_102" x1="128.4" y1="93.1323" x2="128.4" y2="245.525" gradientUnits="userSpaceOnUse">
<stop stop-color="#0076B8"/>
<stop offset="1" stop-color="#B400C4" stop-opacity="0.43"/>
</linearGradient>
<linearGradient id="paint3_linear_72_102" x1="162.679" y1="153.748" x2="162.679" y2="223.961" gradientUnits="userSpaceOnUse">
<stop stop-color="#0076B8"/>
<stop offset="1" stop-color="#B400C4" stop-opacity="0.43"/>
</linearGradient>
<linearGradient id="paint4_linear_72_102" x1="128.643" y1="8.03125" x2="128.643" y2="38.9024" gradientUnits="userSpaceOnUse">
<stop stop-color="#0076B8"/>
<stop offset="1" stop-color="#B400C4" stop-opacity="0.43"/>
</linearGradient>
</defs>
</svg>
