<svg width="45" height="52" viewBox="0 0 45 52" fill="none" xmlns="http://www.w3.org/2000/svg">
<path d="M40.1786 3.21436H4.82143C2.1596 3.21436 0 5.37395 0 8.03578V43.3929C0 46.0548 2.1596 48.2144 4.82143 48.2144H40.1786C42.8404 48.2144 45 46.0548 45 43.3929V8.03578C45 5.37395 42.8404 3.21436 40.1786 3.21436ZM27.8538 41.7556C27.01 41.9063 26.6987 41.384 26.6987 40.9521C26.6987 40.4097 26.7188 37.6373 26.7188 35.3974C26.7188 33.8304 26.1964 32.836 25.5837 32.3137C29.3002 31.9019 33.2176 31.3896 33.2176 24.9711C33.2176 23.1429 32.5647 22.2289 31.5 21.0536C31.6708 20.6217 32.2433 18.8438 31.3292 16.5336C29.933 16.1016 26.7388 18.3315 26.7388 18.3315C25.4129 17.9599 23.9766 17.769 22.5603 17.769C21.144 17.769 19.7076 17.9599 18.3817 18.3315C18.3817 18.3315 15.1875 16.1016 13.7913 16.5336C12.8772 18.8338 13.4397 20.6117 13.6205 21.0536C12.5558 22.2289 12.0536 23.1429 12.0536 24.9711C12.0536 31.3594 15.8002 31.9019 19.5167 32.3137C19.0346 32.7456 18.6027 33.4889 18.452 34.5536C17.4978 34.9856 15.0569 35.7289 13.6004 33.1574C12.6864 31.5704 11.0391 31.4398 11.0391 31.4398C9.41183 31.4197 10.9286 32.4644 10.9286 32.4644C12.0134 32.9666 12.7768 34.8952 12.7768 34.8952C13.7511 37.8784 18.4118 36.874 18.4118 36.874C18.4118 38.2702 18.4319 40.5402 18.4319 40.9521C18.4319 41.384 18.1306 41.9063 17.2768 41.7556C10.6473 39.5358 6.0067 33.2277 6.0067 25.855C6.0067 16.634 13.058 9.63288 22.279 9.63288C31.5 9.63288 38.9732 16.634 38.9732 25.855C38.9833 33.2277 34.4833 39.5458 27.8538 41.7556ZM18 35.6184C17.8092 35.6586 17.6283 35.5782 17.6083 35.4476C17.5882 35.2969 17.7188 35.1664 17.9096 35.1262C18.1004 35.1061 18.2812 35.1865 18.3013 35.317C18.3315 35.4476 18.2009 35.5782 18 35.6184ZM17.0458 35.528C17.0458 35.6586 16.8951 35.769 16.6942 35.769C16.4732 35.7891 16.3225 35.6786 16.3225 35.528C16.3225 35.3974 16.4732 35.2869 16.6741 35.2869C16.865 35.2668 17.0458 35.3773 17.0458 35.528ZM15.6696 35.4175C15.6295 35.5481 15.4286 35.6083 15.2578 35.5481C15.067 35.5079 14.9364 35.3572 14.9766 35.2266C15.0167 35.0961 15.2176 35.0358 15.3884 35.076C15.5893 35.1362 15.7199 35.2869 15.6696 35.4175ZM14.4342 34.8751C14.3437 34.9856 14.1529 34.9655 14.0022 34.8148C13.8516 34.6842 13.8114 34.4934 13.9118 34.403C14.0022 34.2925 14.1931 34.3126 14.3438 34.4632C14.4743 34.5938 14.5246 34.7947 14.4342 34.8751ZM13.5201 33.961C13.4297 34.0213 13.2589 33.961 13.1484 33.8103C13.0379 33.6597 13.0379 33.4889 13.1484 33.4186C13.2589 33.3282 13.4297 33.3985 13.5201 33.5492C13.6306 33.6998 13.6306 33.8806 13.5201 33.961ZM12.8672 32.9867C12.7768 33.0771 12.6261 33.0269 12.5156 32.9264C12.4051 32.7958 12.385 32.6452 12.4754 32.5748C12.5658 32.4844 12.7165 32.5347 12.827 32.6351C12.9375 32.7657 12.9576 32.9164 12.8672 32.9867ZM12.1942 32.2434C12.154 32.3338 12.0234 32.3539 11.9129 32.2836C11.7824 32.2233 11.7221 32.1128 11.7623 32.0224C11.8025 31.9621 11.9129 31.932 12.0435 31.9822C12.1741 32.0525 12.2344 32.163 12.1942 32.2434Z" fill="black"/>
</svg>
