<svg width="46" height="46" viewBox="0 0 46 46" fill="none" xmlns="http://www.w3.org/2000/svg">
<path fill-rule="evenodd" clip-rule="evenodd" d="M40.3799 0C43.4818 0 46 2.51832 46 5.62009V40.3799C46 43.4817 43.4817 46 40.3799 46H5.62009C2.51832 46 0 43.4817 0 40.3799V5.62009C0 2.51832 2.51823 0 5.62009 0L40.3799 0ZM14.4164 38.0289V17.7496H7.67454V38.0289H14.4164ZM38.7227 38.0289V26.3996C38.7227 20.1705 35.3968 17.2727 30.9619 17.2727C27.3857 17.2727 25.7838 19.2395 24.8869 20.6208V17.7496H18.1467C18.2361 19.6526 18.1467 38.0289 18.1467 38.0289H24.8868V26.7035C24.8868 26.0973 24.9305 25.4914 25.1091 25.0581C25.5955 23.8474 26.7053 22.5933 28.5675 22.5933C31.0054 22.5933 31.9822 24.4537 31.9822 27.1786V38.0289H38.7227ZM11.091 7.97112C8.78438 7.97112 7.27734 9.48759 7.27734 11.4752C7.27734 13.421 8.73856 14.9793 11.0018 14.9793H11.0453C13.3961 14.9793 14.8593 13.421 14.8593 11.4752C14.8158 9.49037 13.4002 7.97543 11.091 7.97112Z" fill="black"/>
</svg>
