<svg width="294" height="294" viewBox="0 0 294 294" fill="none" xmlns="http://www.w3.org/2000/svg">
<g clip-path="url(#clip0_75_127)">
<path d="M234.281 101.062C257.115 101.062 275.625 82.5523 275.625 59.7188C275.625 36.8852 257.115 18.375 234.281 18.375C211.448 18.375 192.938 36.8852 192.938 59.7188C192.938 82.5523 211.448 101.062 234.281 101.062Z" fill="url(#paint0_linear_75_127)"/>
<path d="M220.73 174.562C224.45 174.562 226.655 178.789 224.45 181.821L180.029 243.561L150.721 284.215C148.883 286.788 145.116 286.788 143.279 284.215L111.444 239.978L69.5492 181.821C67.3442 178.789 69.5492 174.562 73.2701 174.562H105.656C108.183 174.562 110.25 172.495 110.25 169.969V22.9688V9.1875C110.25 6.66094 112.317 4.59375 114.844 4.59375H179.156C181.683 4.59375 183.75 6.66094 183.75 9.1875V37.6228C183.75 37.6687 183.75 37.6687 183.75 37.6687C180.764 44.4216 179.156 51.9094 179.156 59.7188C179.156 67.5281 180.764 75.0159 183.75 81.7687C183.75 81.7687 183.75 81.7687 183.75 81.8147V151.594V169.969C183.75 172.495 185.817 174.562 188.344 174.562H220.73Z" fill="url(#paint1_linear_75_127)"/>
<path d="M220.73 174.562C224.45 174.562 226.655 178.789 224.45 181.821L180.029 243.561L150.721 284.215C148.883 286.788 145.116 286.788 143.279 284.215L111.444 239.978L69.5492 181.821C67.3442 178.789 69.5492 174.562 73.2701 174.562H105.656C108.183 174.562 110.25 172.495 110.25 169.969V22.9688V9.1875C110.25 6.66094 112.317 4.59375 114.844 4.59375H179.156C181.683 4.59375 183.75 6.66094 183.75 9.1875V37.6228C183.75 37.6687 183.75 37.6687 183.75 37.6687C180.764 44.4216 179.156 51.9094 179.156 59.7188C179.156 67.5281 180.764 75.0159 183.75 81.7687C183.75 81.7687 183.75 81.7687 183.75 81.8147V151.594V169.969C183.75 172.495 185.817 174.562 188.344 174.562H220.73Z" fill="url(#paint2_linear_75_127)"/>
<path d="M284.904 179.156H252.656V116.506C277.163 108.613 294 85.7808 294 59.7188C294 26.7907 267.211 0 234.281 0C216.237 0 199.513 8.12405 188.344 21.5567V9.1875C188.344 4.12289 184.223 0 179.156 0H114.844C109.777 0 105.656 4.12289 105.656 9.1875V18.375H59.7186C54.6517 18.375 50.5311 22.4979 50.5311 27.5625V156.188H18.6034C15.0794 156.188 11.9212 158.157 10.3622 161.328C8.80093 164.509 9.17359 168.228 11.3579 171.055L84.5191 264.469C86.2757 266.738 88.909 268.035 91.7595 268.035C91.7974 268.035 91.8335 268.035 91.8714 268.035C94.7764 267.999 97.4299 266.635 99.1479 264.303L111.381 247.78L139.541 286.886C141.263 289.299 144.051 290.74 146.999 290.74C149.946 290.74 152.734 289.299 154.446 286.904L180.17 251.193L208.55 287.442C210.307 289.708 212.94 291.004 215.791 291.004C215.829 291.004 215.865 291.004 215.903 291.004C218.808 290.969 221.461 289.604 223.181 287.272L292.266 193.794C294.347 190.99 294.668 187.316 293.105 184.203C291.537 181.09 288.397 179.156 284.904 179.156ZM234.281 9.1875C262.144 9.1875 284.812 31.8559 284.812 59.7188C284.812 82.7995 269.23 102.92 246.905 108.653C242.836 109.711 238.59 110.25 234.281 110.25C214.302 110.25 196.214 98.5055 188.101 80.2919C188.057 80.1615 188.007 80.0363 187.951 79.9106C185.163 73.608 183.75 66.8115 183.75 59.7188C183.75 52.626 185.163 45.8295 187.951 39.5269C188.003 39.4104 188.052 39.2846 188.092 39.1588C196.204 20.9412 214.298 9.1875 234.281 9.1875ZM215.803 281.798L185.762 243.429L203.655 218.589C205.137 216.53 204.669 213.659 202.61 212.178C200.55 210.698 197.682 211.169 196.199 213.223L147.007 281.533L115.405 237.656C115.395 237.64 115.383 237.628 115.373 237.612L73.2713 179.156H105.656C110.723 179.156 114.844 175.033 114.844 169.969V133.219C114.844 130.68 117.861 119.943 115.324 119.943C112.787 119.943 105.656 112.305 105.656 114.844V169.969H73.2713C69.799 169.969 66.6609 171.894 65.0841 174.993C63.5142 178.075 63.8013 181.727 65.822 184.508L105.747 239.953L91.7692 258.829L18.6034 165.375H50.5311C55.598 165.375 59.7186 161.252 59.7186 156.188V27.5625H105.656V114.844C105.656 117.383 110.25 141.5 112.787 141.5C115.324 141.5 114.844 117.383 114.844 114.844V9.1875H179.156V36.8034C176.128 44.0064 174.562 51.7015 174.562 59.7188C174.562 67.7337 176.128 75.4345 179.156 82.6341V169.969C179.156 175.033 183.277 179.156 188.344 179.156L220.722 179.138L197.213 211.882C195.73 213.941 196.199 216.812 198.258 218.293C199.07 218.876 200.008 219.159 200.936 219.159C202.365 219.159 203.772 218.495 204.669 217.248L228.165 184.522C230.199 181.727 230.486 178.075 228.916 174.993C227.339 171.894 224.201 169.969 220.729 169.969H188.344V97.8808C199.513 111.313 216.237 119.438 234.281 119.438C237.387 119.438 240.445 119.121 243.469 118.651V179.156C243.469 184.221 247.589 188.344 252.656 188.344L284.884 188.321L215.803 281.798Z" fill="url(#paint3_linear_75_127)"/>
<path d="M234.281 64.3125C236.814 64.3125 238.875 66.3716 238.875 68.9062C238.875 71.4409 236.814 73.5 234.281 73.5C232.637 73.5 231.123 72.6341 230.331 71.2347C229.082 69.0366 226.278 68.2603 224.069 69.5029C221.861 70.7547 221.088 73.558 222.337 75.7653C223.973 78.6513 226.633 80.7087 229.688 81.7969V82.6875C229.688 85.2267 231.744 87.2812 234.281 87.2812C236.818 87.2812 238.875 85.2267 238.875 82.6875V81.8411C244.211 79.9387 248.062 74.8873 248.062 68.9062C248.062 61.307 241.88 55.125 234.281 55.125C231.749 55.125 229.688 53.0659 229.688 50.5312C229.688 47.9966 231.749 45.9375 234.281 45.9375C235.925 45.9375 237.439 46.8034 238.231 48.2028C239.481 50.4009 242.285 51.1772 244.494 49.9346C246.701 48.6828 247.474 45.8795 246.226 43.6722C244.59 40.7862 241.929 38.7288 238.875 37.64V36.75C238.875 34.2108 236.818 32.1562 234.281 32.1562C231.744 32.1562 229.688 34.2108 229.688 36.75V37.5964C224.352 39.4988 220.5 44.5502 220.5 50.5312C220.5 58.1305 226.682 64.3125 234.281 64.3125Z" fill="white"/>
<path d="M234.281 105.656C259.612 105.656 280.219 85.047 280.219 59.7188C280.219 34.3905 259.612 13.7812 234.281 13.7812C208.951 13.7812 188.344 34.3905 188.344 59.7188C188.344 85.047 208.951 105.656 234.281 105.656ZM234.281 22.9688C254.545 22.9688 271.031 39.4551 271.031 59.7188C271.031 79.9824 254.545 96.4688 234.281 96.4688C214.018 96.4688 197.531 79.9824 197.531 59.7188C197.531 39.4551 214.018 22.9688 234.281 22.9688Z" fill="url(#paint4_linear_75_127)"/>
</g>
<defs>
<linearGradient id="paint0_linear_75_127" x1="234.281" y1="18.375" x2="234.281" y2="101.062" gradientUnits="userSpaceOnUse">
<stop stop-color="#0076B8"/>
<stop offset="1" stop-color="#B400C4" stop-opacity="0.43"/>
</linearGradient>
<linearGradient id="paint1_linear_75_127" x1="147" y1="4.59375" x2="147" y2="286.145" gradientUnits="userSpaceOnUse">
<stop stop-color="#0076B8"/>
<stop offset="1" stop-color="#B400C4" stop-opacity="0.43"/>
</linearGradient>
<linearGradient id="paint2_linear_75_127" x1="147" y1="4.59375" x2="147" y2="286.145" gradientUnits="userSpaceOnUse">
<stop stop-color="#0076B8"/>
<stop offset="1" stop-color="#B400C4" stop-opacity="0.43"/>
</linearGradient>
<linearGradient id="paint3_linear_75_127" x1="151.748" y1="0" x2="151.748" y2="291.004" gradientUnits="userSpaceOnUse">
<stop stop-color="#0076B8"/>
<stop offset="1" stop-color="#B400C4" stop-opacity="0.43"/>
</linearGradient>
<linearGradient id="paint4_linear_75_127" x1="234.281" y1="13.7812" x2="234.281" y2="105.656" gradientUnits="userSpaceOnUse">
<stop stop-color="#0076B8"/>
<stop offset="1" stop-color="#B400C4" stop-opacity="0.43"/>
</linearGradient>
<clipPath id="clip0_75_127">
<rect width="294" height="294" fill="white"/>
</clipPath>
</defs>
</svg>
