<svg width="379" height="347" viewBox="0 0 379 347" fill="none" xmlns="http://www.w3.org/2000/svg">
<g clip-path="url(#clip0_72_11)">
<path fill-rule="evenodd" clip-rule="evenodd" d="M254.386 167.98H222.662H203.182H118.027C100.814 167.98 86.8599 154.056 86.8599 136.882C86.8599 121.033 98.7464 107.963 114.108 106.038C113.046 103.002 112.462 99.7426 112.462 96.3449C112.462 80.0901 125.669 66.9132 141.96 66.9132C149.093 66.9132 155.633 69.4398 160.734 73.6435C163.702 51.0461 183.063 33.5948 206.522 33.5948C232.034 33.5948 252.716 54.2305 252.716 79.6853C252.716 82.9213 252.379 86.0786 251.743 89.1257H254.386C276.21 89.1257 293.902 106.778 293.902 128.553C293.902 150.328 276.21 167.98 254.386 167.98Z" fill="#CCE6FF"/>
<path d="M205.998 120.51C229.022 120.51 247.688 101.863 247.688 78.8612C247.688 55.8591 229.022 37.2122 205.998 37.2122C182.973 37.2122 164.308 55.8591 164.308 78.8612C164.308 101.863 182.973 120.51 205.998 120.51Z" fill="url(#paint0_linear_72_11)"/>
<path d="M253.696 165.826C274.109 165.826 290.658 149.294 290.658 128.901C290.658 108.508 274.109 91.9767 253.696 91.9767C233.283 91.9767 216.735 108.508 216.735 128.901C216.735 149.294 233.283 165.826 253.696 165.826Z" fill="url(#paint1_linear_72_11)"/>
<path d="M142.676 123.506C157.453 123.506 169.431 111.539 169.431 96.7769C169.431 82.0149 157.453 70.0479 142.676 70.0479C127.9 70.0479 115.921 82.0149 115.921 96.7769C115.921 111.539 127.9 123.506 142.676 123.506Z" fill="url(#paint2_linear_72_11)"/>
<path d="M119.785 165.508C135.646 165.508 148.505 152.663 148.505 136.817C148.505 120.971 135.646 108.125 119.785 108.125C103.923 108.125 91.0649 120.971 91.0649 136.817C91.0649 152.663 103.923 165.508 119.785 165.508Z" fill="url(#paint3_linear_72_11)"/>
<path d="M187.983 161.594C209.003 161.594 226.044 144.57 226.044 123.57C226.044 102.57 209.003 85.5463 187.983 85.5463C166.962 85.5463 149.922 102.57 149.922 123.57C149.922 144.57 166.962 161.594 187.983 161.594Z" fill="url(#paint4_linear_72_11)"/>
<path fill-rule="evenodd" clip-rule="evenodd" d="M254.386 167.98H222.662H203.182H118.027C100.814 167.98 86.8599 154.056 86.8599 136.882C86.8599 121.033 98.7464 107.963 114.108 106.038C113.046 103.002 112.462 99.7426 112.462 96.3449C112.462 80.0901 125.669 66.9132 141.96 66.9132C149.093 66.9132 155.633 69.4398 160.734 73.6435C163.702 51.0461 183.063 33.5948 206.522 33.5948C232.034 33.5948 252.716 54.2305 252.716 79.6853C252.716 82.9213 252.379 86.0786 251.743 89.1257H254.386C276.21 89.1257 293.902 106.778 293.902 128.553C293.902 150.328 276.21 167.98 254.386 167.98Z" fill="url(#paint5_linear_72_11)"/>
<g clip-path="url(#clip1_72_11)">
<path fill-rule="evenodd" clip-rule="evenodd" d="M191.339 197.339C176.937 197.339 165.242 209.101 165.242 223.516C165.242 237.917 176.937 249.674 191.339 249.674C205.751 249.674 217.512 237.917 217.512 223.516C217.512 209.101 205.751 197.339 191.339 197.339Z" fill="url(#paint6_linear_72_11)"/>
<path fill-rule="evenodd" clip-rule="evenodd" d="M141.297 230.401C131.558 230.401 123.594 238.36 123.594 248.098C123.594 257.819 131.558 265.783 141.297 265.783C151.022 265.783 158.982 257.819 158.982 248.098C158.982 238.36 151.022 230.401 141.297 230.401Z" fill="url(#paint7_linear_72_11)"/>
<path fill-rule="evenodd" clip-rule="evenodd" d="M241.456 230.401C231.671 230.401 223.761 238.36 223.761 248.098C223.761 257.819 231.671 265.783 241.456 265.783C251.197 265.783 259.159 257.819 259.159 248.098C259.159 238.36 251.197 230.401 241.456 230.401Z" fill="url(#paint8_linear_72_11)"/>
<path fill-rule="evenodd" clip-rule="evenodd" d="M105.962 244.473C99.3965 244.473 94.0918 249.781 94.0918 256.349C94.0918 262.932 99.3965 268.237 105.962 268.237C112.53 268.237 117.835 262.932 117.835 256.349C117.835 249.781 112.53 244.473 105.962 244.473Z" fill="url(#paint9_linear_72_11)"/>
<path fill-rule="evenodd" clip-rule="evenodd" d="M106.597 307.941C99.4892 301.224 93.1602 293.694 87.75 285.503C90.5857 278.205 97.6939 273.001 105.963 273.001C107.922 273.001 109.701 273.37 111.462 273.87C108.422 278.997 106.597 284.937 106.597 291.311V307.941Z" fill="url(#paint10_linear_72_11)"/>
<path fill-rule="evenodd" clip-rule="evenodd" d="M143.883 332.441C132.686 327.643 122.313 321.291 113.046 313.646V296.63C113.046 281.034 125.753 268.385 141.362 268.385C144.128 268.385 146.733 268.898 149.256 269.645C145.969 276.099 143.883 283.363 143.883 291.08L143.883 332.441Z" fill="url(#paint11_linear_72_11)"/>
<path fill-rule="evenodd" clip-rule="evenodd" d="M232.367 336.729C220.231 340.581 207.306 342.662 193.895 342.662C178.614 342.662 163.961 339.965 150.39 335.02V295.808C150.39 273.24 168.717 254.847 191.339 254.847C213.97 254.847 232.367 273.24 232.367 295.808V336.729Z" fill="url(#paint12_linear_72_11)"/>
<path fill-rule="evenodd" clip-rule="evenodd" d="M269.708 317.588C260.338 324.56 249.972 330.266 238.87 334.469V302.307C238.87 294.591 236.784 277.281 233.5 270.826C236.022 270.08 238.675 269.567 241.455 269.567C257.003 269.567 269.708 282.215 269.708 297.811V317.589L269.708 317.588Z" fill="url(#paint13_linear_72_11)"/>
<path fill-rule="evenodd" clip-rule="evenodd" d="M296.25 290.931C290.4 298.858 283.652 306.079 276.158 312.449V291.311C276.158 284.937 274.314 278.997 271.288 273.87C273.054 273.37 274.884 273.001 276.792 273.001C286.993 273.001 295.432 280.927 296.25 290.931Z" fill="url(#paint14_linear_72_11)"/>
<path fill-rule="evenodd" clip-rule="evenodd" d="M276.793 244.473C270.204 244.473 264.897 249.781 264.897 256.349C264.897 262.932 270.204 268.237 276.793 268.237C283.357 268.237 288.662 262.932 288.662 256.349C288.662 249.781 283.357 244.473 276.793 244.473Z" fill="url(#paint15_linear_72_11)"/>
</g>
</g>
<defs>
<linearGradient id="paint0_linear_72_11" x1="238.289" y1="19.2991" x2="207.179" y2="87.1091" gradientUnits="userSpaceOnUse">
<stop stop-color="white"/>
<stop offset="1" stop-color="#CCE6FF"/>
</linearGradient>
<linearGradient id="paint1_linear_72_11" x1="282.324" y1="76.0955" x2="254.743" y2="136.213" gradientUnits="userSpaceOnUse">
<stop stop-color="white"/>
<stop offset="1" stop-color="#CCE6FF"/>
</linearGradient>
<linearGradient id="paint2_linear_72_11" x1="131.248" y1="56.5333" x2="143.379" y2="102.061" gradientUnits="userSpaceOnUse">
<stop stop-color="white"/>
<stop offset="1" stop-color="#CCE6FF"/>
</linearGradient>
<linearGradient id="paint3_linear_72_11" x1="92.2092" y1="92.3084" x2="120.522" y2="142.507" gradientUnits="userSpaceOnUse">
<stop stop-color="white"/>
<stop offset="1" stop-color="#CCE6FF"/>
</linearGradient>
<linearGradient id="paint4_linear_72_11" x1="164.778" y1="66.9578" x2="188.973" y2="131.095" gradientUnits="userSpaceOnUse">
<stop stop-color="white"/>
<stop offset="1" stop-color="#CCE6FF"/>
</linearGradient>
<linearGradient id="paint5_linear_72_11" x1="190.381" y1="33.5948" x2="190.381" y2="167.98" gradientUnits="userSpaceOnUse">
<stop stop-color="#0076B8"/>
<stop offset="1" stop-color="#B400C4" stop-opacity="0.43"/>
</linearGradient>
<linearGradient id="paint6_linear_72_11" x1="191.377" y1="197.339" x2="191.377" y2="249.674" gradientUnits="userSpaceOnUse">
<stop stop-color="#0076B8"/>
<stop offset="1" stop-color="#B400C4" stop-opacity="0.43"/>
</linearGradient>
<linearGradient id="paint7_linear_72_11" x1="141.288" y1="230.401" x2="141.288" y2="265.783" gradientUnits="userSpaceOnUse">
<stop stop-color="#0076B8"/>
<stop offset="1" stop-color="#B400C4" stop-opacity="0.43"/>
</linearGradient>
<linearGradient id="paint8_linear_72_11" x1="241.46" y1="230.401" x2="241.46" y2="265.783" gradientUnits="userSpaceOnUse">
<stop stop-color="#0076B8"/>
<stop offset="1" stop-color="#B400C4" stop-opacity="0.43"/>
</linearGradient>
<linearGradient id="paint9_linear_72_11" x1="105.963" y1="244.473" x2="105.963" y2="268.237" gradientUnits="userSpaceOnUse">
<stop stop-color="#0076B8"/>
<stop offset="1" stop-color="#B400C4" stop-opacity="0.43"/>
</linearGradient>
<linearGradient id="paint10_linear_72_11" x1="99.606" y1="273.001" x2="99.606" y2="307.941" gradientUnits="userSpaceOnUse">
<stop stop-color="#0076B8"/>
<stop offset="1" stop-color="#B400C4" stop-opacity="0.43"/>
</linearGradient>
<linearGradient id="paint11_linear_72_11" x1="131.151" y1="268.385" x2="131.151" y2="332.441" gradientUnits="userSpaceOnUse">
<stop stop-color="#0076B8"/>
<stop offset="1" stop-color="#B400C4" stop-opacity="0.43"/>
</linearGradient>
<linearGradient id="paint12_linear_72_11" x1="191.379" y1="254.847" x2="191.379" y2="342.662" gradientUnits="userSpaceOnUse">
<stop stop-color="#0076B8"/>
<stop offset="1" stop-color="#B400C4" stop-opacity="0.43"/>
</linearGradient>
<linearGradient id="paint13_linear_72_11" x1="251.604" y1="269.567" x2="251.604" y2="334.469" gradientUnits="userSpaceOnUse">
<stop stop-color="#0076B8"/>
<stop offset="1" stop-color="#B400C4" stop-opacity="0.43"/>
</linearGradient>
<linearGradient id="paint14_linear_72_11" x1="283.769" y1="273.001" x2="283.769" y2="312.449" gradientUnits="userSpaceOnUse">
<stop stop-color="#0076B8"/>
<stop offset="1" stop-color="#B400C4" stop-opacity="0.43"/>
</linearGradient>
<linearGradient id="paint15_linear_72_11" x1="276.78" y1="244.473" x2="276.78" y2="268.237" gradientUnits="userSpaceOnUse">
<stop stop-color="#0076B8"/>
<stop offset="1" stop-color="#B400C4" stop-opacity="0.43"/>
</linearGradient>
<clipPath id="clip0_72_11">
<rect width="379" height="347" fill="white"/>
</clipPath>
<clipPath id="clip1_72_11">
<rect width="278" height="278" fill="white" transform="translate(53 137)"/>
</clipPath>
</defs>
</svg>
