<svg width="277" height="277" viewBox="0 0 277 277" fill="none" xmlns="http://www.w3.org/2000/svg">
<g clip-path="url(#clip0_72_114)">
<path d="M13.1999 45.4938L38.9531 180.989V134.634L21.704 43.8792C21.6207 43.4005 21.6328 42.9101 21.7395 42.4361C21.8462 41.9621 22.0455 41.5138 22.3259 41.1169C22.6063 40.7201 22.9622 40.3826 23.3734 40.1237C23.7846 39.8647 24.2428 39.6896 24.7218 39.6082L38.9531 36.717V27.8833L23.0459 31.1147C19.8366 31.7218 16.9986 33.5758 15.1532 36.2708C13.3078 38.9658 12.6055 42.2821 13.1999 45.4938Z" fill="url(#paint0_linear_72_114)"/>
<path d="M254.003 31.1251L238.047 27.8838V36.7175L252.327 39.6186C253.285 39.791 254.135 40.3363 254.692 41.135C255.249 41.9337 255.466 42.9205 255.296 43.8791L238.047 134.634V180.989L263.8 45.4937C264.396 42.2902 263.7 38.9811 261.864 36.2889C260.029 33.5968 257.202 31.7404 254.003 31.1251Z" fill="url(#paint1_linear_72_114)"/>
<path d="M216.408 8.07425e-05H60.5916C57.166 -0.0120137 53.8754 1.33506 51.4417 3.74582C49.008 6.15658 47.6298 9.43421 47.6094 12.8598V264.14C47.6298 267.566 49.008 270.844 51.4417 273.254C53.8754 275.665 57.166 277.012 60.5916 277H216.406C219.849 276.996 223.149 275.627 225.583 273.193C228.018 270.759 229.387 267.458 229.391 264.016V12.8598C229.37 9.43421 227.992 6.15658 225.558 3.74582C223.125 1.33506 219.834 -0.0120137 216.408 8.07425e-05ZM220.734 264.016C220.733 265.163 220.276 266.263 219.465 267.075C218.654 267.886 217.554 268.342 216.406 268.344H60.5916C59.4609 268.359 58.3705 267.925 57.5595 267.137C56.7485 266.349 56.2832 265.271 56.2656 264.14V12.8598C56.2832 11.7291 56.7485 10.6516 57.5595 9.8636C58.3705 9.07558 59.4609 8.64141 60.5916 8.65633H216.408C217.539 8.64141 218.63 9.07558 219.441 9.8636C220.251 10.6516 220.717 11.7291 220.734 12.8598V264.016Z" fill="url(#paint2_linear_72_114)"/>
<path d="M203.422 142.828H73.5781C72.4302 142.828 71.3294 143.284 70.5177 144.096C69.706 144.907 69.25 146.008 69.25 147.156C69.25 148.304 69.706 149.405 70.5177 150.217C71.3294 151.028 72.4302 151.484 73.5781 151.484H203.422C204.57 151.484 205.671 151.028 206.482 150.217C207.294 149.405 207.75 148.304 207.75 147.156C207.75 146.008 207.294 144.907 206.482 144.096C205.671 143.284 204.57 142.828 203.422 142.828Z" fill="url(#paint3_linear_72_114)"/>
<path d="M203.422 160.141H73.5781C72.4302 160.141 71.3294 160.597 70.5177 161.408C69.706 162.22 69.25 163.321 69.25 164.469C69.25 165.617 69.706 166.718 70.5177 167.529C71.3294 168.341 72.4302 168.797 73.5781 168.797H203.422C204.57 168.797 205.671 168.341 206.482 167.529C207.294 166.718 207.75 165.617 207.75 164.469C207.75 163.321 207.294 162.22 206.482 161.408C205.671 160.597 204.57 160.141 203.422 160.141Z" fill="url(#paint4_linear_72_114)"/>
<path d="M203.422 108.203H73.5781C72.4302 108.203 71.3294 108.659 70.5177 109.471C69.706 110.282 69.25 111.383 69.25 112.531C69.25 113.679 69.706 114.78 70.5177 115.592C71.3294 116.403 72.4302 116.859 73.5781 116.859H203.422C204.57 116.859 205.671 116.403 206.482 115.592C207.294 114.78 207.75 113.679 207.75 112.531C207.75 111.383 207.294 110.282 206.482 109.471C205.671 108.659 204.57 108.203 203.422 108.203Z" fill="url(#paint5_linear_72_114)"/>
<path d="M203.422 125.516H73.5781C72.4302 125.516 71.3294 125.972 70.5177 126.783C69.706 127.595 69.25 128.696 69.25 129.844C69.25 130.992 69.706 132.093 70.5177 132.904C71.3294 133.716 72.4302 134.172 73.5781 134.172H203.422C204.57 134.172 205.671 133.716 206.482 132.904C207.294 132.093 207.75 130.992 207.75 129.844C207.75 128.696 207.294 127.595 206.482 126.783C205.671 125.972 204.57 125.516 203.422 125.516Z" fill="url(#paint6_linear_72_114)"/>
<path d="M149.32 181.781C149.32 180.633 148.864 179.533 148.053 178.721C147.241 177.909 146.14 177.453 144.992 177.453H73.5781C72.4302 177.453 71.3294 177.909 70.5177 178.721C69.706 179.532 69.25 180.633 69.25 181.781C69.25 182.929 69.706 184.03 70.5177 184.842C71.3294 185.653 72.4302 186.109 73.5781 186.109H144.992C146.14 186.109 147.241 185.653 148.053 184.842C148.864 184.03 149.32 182.929 149.32 181.781Z" fill="url(#paint7_linear_72_114)"/>
<path d="M104.736 72.4162C103.822 74.5717 103.572 76.9508 104.018 79.2491C104.464 81.5473 105.586 83.6603 107.24 85.3176L111.612 89.6899C113.269 91.3442 115.382 92.4667 117.681 92.914C119.98 93.3613 122.359 93.1129 124.516 92.2008C125.396 94.3696 126.902 96.2269 128.842 97.5354C130.782 98.844 133.068 99.5443 135.409 99.5469H141.592C143.932 99.5444 146.218 98.8441 148.159 97.5355C150.099 96.2268 151.605 94.3693 152.484 92.2004C154.641 93.1128 157.021 93.3613 159.319 92.914C161.618 92.4668 163.731 91.3441 165.388 89.6896L169.76 85.3179C171.414 83.6605 172.536 81.5475 172.982 79.2491C173.428 76.9507 173.179 74.5715 172.265 72.4157C174.435 71.5373 176.294 70.0314 177.604 68.0907C178.914 66.1499 179.615 63.8626 179.617 61.5212V55.3381C179.615 52.9978 178.914 50.7114 177.606 48.7711C176.297 46.8308 174.44 45.3249 172.271 44.4458C173.183 42.2891 173.432 39.9093 172.984 37.6107C172.537 35.312 171.415 33.1989 169.76 31.5415L165.388 27.1694C163.731 25.515 161.618 24.3925 159.319 23.9452C157.021 23.498 154.641 23.7464 152.484 24.6586C151.605 22.4898 150.099 20.6325 148.158 19.3239C146.218 18.0154 143.932 17.3151 141.592 17.3125H135.409C133.068 17.3149 130.782 18.0152 128.841 19.3239C126.901 20.6325 125.395 22.4901 124.516 24.659C122.359 23.7465 119.98 23.4979 117.681 23.9451C115.382 24.3923 113.269 25.515 111.612 27.1695L107.24 31.5415C105.585 33.1989 104.463 35.312 104.016 37.6107C103.568 39.9094 103.817 42.2892 104.729 44.446C102.56 45.3252 100.703 46.8312 99.3943 48.7714C98.0857 50.7116 97.3854 52.9979 97.3828 55.3381V61.5212C97.3853 63.8628 98.0864 66.1503 99.3963 68.0911C100.706 70.032 102.565 71.5379 104.736 72.4162ZM106.039 55.3381C106.039 54.9321 106.119 54.5301 106.274 54.1551C106.43 53.78 106.658 53.4392 106.945 53.1521C107.232 52.8651 107.572 52.6374 107.948 52.482C108.323 52.3266 108.725 52.2467 109.131 52.2467C109.75 52.253 110.356 52.0613 110.859 51.6995C111.362 51.3378 111.736 50.8248 111.928 50.2355C112.439 48.5809 113.104 46.9782 113.915 45.4483C114.2 44.8958 114.299 44.2669 114.2 43.6536C114.102 43.0403 113.809 42.4746 113.366 42.0394L113.361 42.0344C113.074 41.7473 112.846 41.4065 112.691 41.0314C112.535 40.6564 112.455 40.2544 112.455 39.8484C112.455 39.4424 112.535 39.0404 112.691 38.6653C112.846 38.2903 113.074 37.9495 113.361 37.6624L117.733 33.2903C118.02 33.0032 118.361 32.7755 118.736 32.6201C119.111 32.4647 119.513 32.3847 119.919 32.3847C120.325 32.3847 120.727 32.4647 121.102 32.6201C121.477 32.7755 121.818 33.0032 122.105 33.2903L122.11 33.2953C122.665 33.8526 123.418 34.1673 124.205 34.1704C124.663 34.1711 125.114 34.0595 125.519 33.8452C127.049 33.0338 128.651 32.3683 130.306 31.8573C130.895 31.666 131.408 31.2916 131.77 30.7885C132.132 30.2854 132.323 29.6799 132.317 29.0603C132.317 28.6543 132.397 28.2523 132.552 27.8772C132.708 27.5021 132.935 27.1613 133.222 26.8742C133.51 26.5871 133.85 26.3594 134.225 26.2041C134.601 26.0487 135.003 25.9687 135.409 25.9688H141.592C141.998 25.9687 142.4 26.0487 142.775 26.2041C143.15 26.3594 143.491 26.5872 143.778 26.8742C144.065 27.1613 144.292 27.5021 144.448 27.8772C144.603 28.2523 144.683 28.6543 144.683 29.0603C144.677 29.6799 144.868 30.2854 145.23 30.7884C145.592 31.2915 146.105 31.666 146.694 31.8573C148.349 32.3683 149.952 33.0338 151.481 33.8452C151.886 34.0595 152.337 34.1711 152.795 34.1704C153.582 34.1672 154.335 33.8526 154.89 33.2953L154.895 33.2903C155.182 33.0032 155.523 32.7755 155.898 32.6201C156.273 32.4647 156.675 32.3847 157.081 32.3847C157.487 32.3847 157.889 32.4647 158.264 32.6201C158.64 32.7755 158.98 33.0032 159.267 33.2903L163.639 37.6624C164.219 38.2422 164.545 39.0285 164.545 39.8484C164.545 40.6683 164.219 41.4546 163.639 42.0344L163.634 42.0394C163.191 42.4746 162.899 43.0402 162.8 43.6536C162.701 44.2669 162.801 44.8958 163.085 45.4483C163.896 46.9782 164.561 48.5809 165.072 50.2355C165.264 50.8248 165.638 51.3378 166.141 51.6995C166.644 52.0613 167.25 52.253 167.869 52.2467C168.689 52.2467 169.476 52.5724 170.055 53.1522C170.635 53.7319 170.961 54.5182 170.961 55.3381V61.5212C170.961 62.3411 170.635 63.1274 170.055 63.7072C169.476 64.287 168.689 64.6127 167.87 64.6127C167.25 64.6064 166.644 64.7981 166.141 65.1598C165.638 65.5216 165.264 66.0345 165.072 66.6239C164.561 68.2785 163.896 69.8812 163.085 71.411C162.801 71.9636 162.701 72.5924 162.8 73.2057C162.899 73.8191 163.191 74.3847 163.634 74.8199L163.639 74.8249C164.219 75.4047 164.545 76.191 164.545 77.0109C164.545 77.8309 164.219 78.6172 163.639 79.197L159.267 83.569C158.98 83.856 158.64 84.0838 158.264 84.2391C157.889 84.3945 157.487 84.4745 157.081 84.4745C156.675 84.4745 156.273 84.3946 155.898 84.2392C155.523 84.0839 155.182 83.8562 154.895 83.5691L154.89 83.5641C154.335 83.0068 153.582 82.6921 152.795 82.689C152.337 82.6882 151.886 82.7999 151.482 83.0142C149.952 83.8255 148.349 84.4911 146.694 85.0019C146.105 85.1933 145.592 85.5677 145.23 86.0709C144.869 86.574 144.677 87.1794 144.683 87.7991C144.683 88.2051 144.603 88.6071 144.448 88.9822C144.292 89.3573 144.065 89.6981 143.778 89.9852C143.491 90.2722 143.15 90.5 142.775 90.6553C142.4 90.8107 141.998 90.8906 141.592 90.8906H135.409C135.003 90.8906 134.601 90.8107 134.225 90.6553C133.85 90.4999 133.51 90.2722 133.222 89.9851C132.935 89.6981 132.708 89.3572 132.552 88.9822C132.397 88.6071 132.317 88.2051 132.317 87.7991C132.323 87.1794 132.132 86.574 131.77 86.0709C131.408 85.5678 130.895 85.1933 130.306 85.0019C128.651 84.4911 127.048 83.8256 125.519 83.0142C125.114 82.7999 124.663 82.6882 124.205 82.689C123.418 82.6922 122.665 83.0068 122.11 83.5641L122.105 83.5691C121.525 84.1488 120.739 84.4745 119.919 84.4745C119.099 84.4745 118.313 84.1488 117.733 83.5691L113.361 79.197C113.074 78.9099 112.846 78.5691 112.691 78.194C112.535 77.8189 112.455 77.4169 112.455 77.0109C112.455 76.6049 112.535 76.2029 112.691 75.8278C112.846 75.4528 113.074 75.112 113.361 74.8249L113.366 74.8199C113.809 74.3847 114.101 73.8191 114.2 73.2058C114.299 72.5924 114.2 71.9636 113.915 71.411C113.104 69.8812 112.439 68.2784 111.928 66.6239C111.736 66.0345 111.362 65.5216 110.859 65.1599C110.356 64.7981 109.75 64.6064 109.131 64.6127C108.725 64.6127 108.323 64.5327 107.948 64.3774C107.572 64.222 107.232 63.9943 106.945 63.7072C106.658 63.4202 106.43 63.0794 106.274 62.7043C106.119 62.3292 106.039 61.9272 106.039 61.5212V55.3381Z" fill="url(#paint8_linear_72_114)"/>
<path d="M138.5 75.7422C141.924 75.7422 145.271 74.7268 148.118 72.8245C150.965 70.9222 153.184 68.2184 154.495 65.0549C155.805 61.8915 156.148 58.4105 155.48 55.0522C154.812 51.6939 153.163 48.6091 150.742 46.1879C148.321 43.7667 145.236 42.1179 141.878 41.4499C138.519 40.7818 135.038 41.1247 131.875 42.435C128.711 43.7454 126.008 45.9644 124.105 48.8114C122.203 51.6584 121.188 55.0056 121.188 58.4297C121.193 63.0197 123.018 67.4202 126.264 70.6658C129.51 73.9114 133.91 75.737 138.5 75.7422ZM138.5 49.7734C140.212 49.7734 141.886 50.2811 143.309 51.2323C144.733 52.1834 145.842 53.5354 146.497 55.1171C147.153 56.6988 147.324 58.4393 146.99 60.1184C146.656 61.7976 145.831 63.34 144.621 64.5506C143.41 65.7612 141.868 66.5856 140.189 66.9196C138.51 67.2536 136.769 67.0822 135.187 66.427C133.606 65.7719 132.254 64.6624 131.303 63.2389C130.351 61.8153 129.844 60.1417 129.844 58.4297C129.844 56.1339 130.756 53.9322 132.379 52.3088C134.002 50.6854 136.204 49.7734 138.5 49.7734Z" fill="url(#paint9_linear_72_114)"/>
<path d="M138.5 194.766C132.08 194.766 125.804 196.669 120.466 200.236C115.128 203.803 110.967 208.873 108.51 214.804C106.053 220.736 105.41 227.263 106.663 233.559C107.915 239.856 111.007 245.64 115.547 250.18C120.086 254.72 125.87 257.811 132.167 259.064C138.464 260.316 144.991 259.673 150.922 257.217C156.854 254.76 161.923 250.599 165.49 245.261C169.057 239.923 170.961 233.647 170.961 227.227C170.952 218.62 167.529 210.369 161.443 204.284C155.357 198.198 147.106 194.775 138.5 194.766ZM138.5 251.031C133.792 251.031 129.19 249.635 125.275 247.019C121.36 244.404 118.309 240.686 116.507 236.336C114.706 231.986 114.234 227.2 115.153 222.582C116.071 217.965 118.338 213.723 121.668 210.394C124.997 207.065 129.238 204.798 133.856 203.879C138.474 202.961 143.26 203.432 147.61 205.234C151.959 207.036 155.677 210.087 158.293 214.001C160.909 217.916 162.305 222.518 162.305 227.227C162.298 233.538 159.787 239.588 155.325 244.051C150.862 248.514 144.811 251.024 138.5 251.031Z" fill="url(#paint10_linear_72_114)"/>
<path d="M146.421 217.52L134.922 227.89L130.577 223.974C129.724 223.208 128.602 222.812 127.457 222.873C126.313 222.933 125.239 223.445 124.472 224.297C123.704 225.148 123.306 226.269 123.364 227.414C123.422 228.559 123.932 229.634 124.782 230.403L132.025 236.933C132.82 237.65 133.852 238.047 134.923 238.047C135.994 238.047 137.026 237.65 137.821 236.933L152.22 223.949C152.642 223.568 152.985 223.108 153.229 222.594C153.473 222.081 153.614 221.525 153.643 220.957C153.673 220.389 153.59 219.821 153.399 219.285C153.209 218.75 152.915 218.257 152.534 217.835C152.154 217.413 151.694 217.07 151.18 216.825C150.667 216.581 150.11 216.44 149.543 216.411C148.975 216.382 148.407 216.465 147.871 216.655C147.336 216.845 146.843 217.139 146.421 217.52Z" fill="url(#paint11_linear_72_114)"/>
</g>
<defs>
<linearGradient id="paint0_linear_72_114" x1="25.9734" y1="27.8833" x2="25.9734" y2="180.989" gradientUnits="userSpaceOnUse">
<stop stop-color="#0076B8"/>
<stop offset="1" stop-color="#B400C4" stop-opacity="0.43"/>
</linearGradient>
<linearGradient id="paint1_linear_72_114" x1="251.028" y1="27.8838" x2="251.028" y2="180.989" gradientUnits="userSpaceOnUse">
<stop stop-color="#0076B8"/>
<stop offset="1" stop-color="#B400C4" stop-opacity="0.43"/>
</linearGradient>
<linearGradient id="paint2_linear_72_114" x1="138.5" y1="0" x2="138.5" y2="277" gradientUnits="userSpaceOnUse">
<stop stop-color="#0076B8"/>
<stop offset="1" stop-color="#B400C4" stop-opacity="0.43"/>
</linearGradient>
<linearGradient id="paint3_linear_72_114" x1="138.5" y1="142.828" x2="138.5" y2="151.484" gradientUnits="userSpaceOnUse">
<stop stop-color="#0076B8"/>
<stop offset="1" stop-color="#B400C4" stop-opacity="0.43"/>
</linearGradient>
<linearGradient id="paint4_linear_72_114" x1="138.5" y1="160.141" x2="138.5" y2="168.797" gradientUnits="userSpaceOnUse">
<stop stop-color="#0076B8"/>
<stop offset="1" stop-color="#B400C4" stop-opacity="0.43"/>
</linearGradient>
<linearGradient id="paint5_linear_72_114" x1="138.5" y1="108.203" x2="138.5" y2="116.859" gradientUnits="userSpaceOnUse">
<stop stop-color="#0076B8"/>
<stop offset="1" stop-color="#B400C4" stop-opacity="0.43"/>
</linearGradient>
<linearGradient id="paint6_linear_72_114" x1="138.5" y1="125.516" x2="138.5" y2="134.172" gradientUnits="userSpaceOnUse">
<stop stop-color="#0076B8"/>
<stop offset="1" stop-color="#B400C4" stop-opacity="0.43"/>
</linearGradient>
<linearGradient id="paint7_linear_72_114" x1="109.285" y1="177.453" x2="109.285" y2="186.109" gradientUnits="userSpaceOnUse">
<stop stop-color="#0076B8"/>
<stop offset="1" stop-color="#B400C4" stop-opacity="0.43"/>
</linearGradient>
<linearGradient id="paint8_linear_72_114" x1="138.5" y1="17.3125" x2="138.5" y2="99.5469" gradientUnits="userSpaceOnUse">
<stop stop-color="#0076B8"/>
<stop offset="1" stop-color="#B400C4" stop-opacity="0.43"/>
</linearGradient>
<linearGradient id="paint9_linear_72_114" x1="138.5" y1="41.1172" x2="138.5" y2="75.7422" gradientUnits="userSpaceOnUse">
<stop stop-color="#0076B8"/>
<stop offset="1" stop-color="#B400C4" stop-opacity="0.43"/>
</linearGradient>
<linearGradient id="paint10_linear_72_114" x1="138.5" y1="194.766" x2="138.5" y2="259.688" gradientUnits="userSpaceOnUse">
<stop stop-color="#0076B8"/>
<stop offset="1" stop-color="#B400C4" stop-opacity="0.43"/>
</linearGradient>
<linearGradient id="paint11_linear_72_114" x1="138.504" y1="216.405" x2="138.504" y2="238.047" gradientUnits="userSpaceOnUse">
<stop stop-color="#0076B8"/>
<stop offset="1" stop-color="#B400C4" stop-opacity="0.43"/>
</linearGradient>
<clipPath id="clip0_72_114">
<rect width="277" height="277" fill="white"/>
</clipPath>
</defs>
</svg>
