<svg width="46" height="46" viewBox="0 0 46 46" fill="none" xmlns="http://www.w3.org/2000/svg">
<g clip-path="url(#clip0_65_791)">
<path fill-rule="evenodd" clip-rule="evenodd" d="M40.3799 0C43.4818 0 46 2.51832 46 5.62009V40.3799C46 43.4817 43.4817 46 40.3799 46H5.62009C2.51832 46 0 43.4817 0 40.3799V5.62009C0 2.51832 2.51823 0 5.62009 0L40.3799 0ZM17.5662 38.1426C29.7794 38.1426 36.4574 28.0224 36.4574 19.2514C36.4574 18.9622 36.4574 18.673 36.4437 18.3977C37.738 17.4614 38.867 16.291 39.7621 14.9554C38.5779 15.4786 37.2974 15.8367 35.948 16.0019C37.325 15.1757 38.3714 13.8814 38.867 12.3255C37.5866 13.0828 36.1683 13.6336 34.6537 13.9365C33.442 12.6422 31.7209 11.8436 29.807 11.8436C26.1444 11.8436 23.1703 14.8177 23.1703 18.4803C23.1703 19.0036 23.2253 19.513 23.3492 19.9949C17.8278 19.7195 12.9397 17.0759 9.6627 13.0553C9.09812 14.0329 8.76767 15.1757 8.76767 16.3874C8.76767 18.6869 9.93807 20.7247 11.728 21.9088C10.6403 21.8813 9.62137 21.5784 8.72634 21.0826V21.1653C8.72634 24.3873 11.0121 27.0585 14.0551 27.6781C13.5043 27.8296 12.9123 27.9122 12.3063 27.9122C11.8795 27.9122 11.4665 27.8709 11.0534 27.7882C11.8933 30.432 14.3442 32.3458 17.2495 32.4009C14.9776 34.1772 12.1136 35.2373 9.0018 35.2373C8.46481 35.2373 7.94156 35.2099 7.41831 35.1409C10.3236 37.0411 13.8209 38.1426 17.5662 38.1426Z" fill="black"/>
</g>
<defs>
<clipPath id="clip0_65_791">
<rect width="46" height="46" fill="white"/>
</clipPath>
</defs>
</svg>
