<svg width="222" height="222" viewBox="0 0 222 222" fill="none" xmlns="http://www.w3.org/2000/svg">
<path d="M55.5 177.6C55.5 189.861 65.4393 199.8 77.7 199.8H113.855C105.137 189.245 99.9 175.709 99.9 160.95C99.9 151.859 101.887 143.233 105.45 135.481V79.9989L92.7244 92.7244C90.557 94.8918 87.043 94.8918 84.8756 92.7244C82.7081 90.557 82.7081 87.0429 84.8756 84.8755L107.076 62.6755C109.243 60.508 112.757 60.508 114.925 62.6755L137.125 84.8755C139.292 87.0429 139.292 90.557 137.125 92.7244C134.957 94.8918 131.443 94.8918 129.275 92.7244L116.55 79.9989V119.049C127.681 107.258 143.456 99.8999 160.95 99.8999C162.82 99.8999 164.672 99.9841 166.5 100.149V44.4C166.5 32.1392 156.561 22.2 144.3 22.2H77.7C65.4393 22.2 55.5 32.1392 55.5 44.4V177.6ZM210.9 160.95C210.9 188.537 188.537 210.9 160.95 210.9C133.363 210.9 111 188.537 111 160.95C111 133.363 133.363 111 160.95 111C188.537 111 210.9 133.363 210.9 160.95ZM187.075 140.375C184.907 138.208 181.393 138.208 179.225 140.375L149.85 169.751L142.675 162.575C140.507 160.408 136.993 160.408 134.825 162.575C132.658 164.743 132.658 168.257 134.825 170.425L145.925 181.525C148.093 183.692 151.607 183.692 153.775 181.525L187.075 148.225C189.242 146.057 189.242 142.543 187.075 140.375Z" fill="url(#paint0_linear_72_69)"/>
<defs>
<linearGradient id="paint0_linear_72_69" x1="133.2" y1="22.2" x2="133.2" y2="210.9" gradientUnits="userSpaceOnUse">
<stop stop-color="#0076B8"/>
<stop offset="1" stop-color="#B400C4" stop-opacity="0.43"/>
</linearGradient>
</defs>
</svg>
